<svg id="Layer_1" data-name="Layer 1" xmlns="http://www.w3.org/2000/svg" viewBox="0 0 535 105"><defs><style>.cls-1{fill:#8a3033;}.cls-2{fill:#ffa737;stroke:#ffa737;stroke-width:10px;opacity:0.28;}.cls-2,.cls-3,.cls-4{stroke-miterlimit:10;}.cls-3,.cls-4{fill:none;stroke:#f3a839;}.cls-3{stroke-width:6px;}.cls-4{stroke-width:15px;}</style></defs><title>CantPauseLogoV2</title><path class="cls-1" d="M50.26,71.85A21.53,21.53,0,0,1,42.89,75,38.51,38.51,0,0,1,33,76.29a28,28,0,0,1-14.45-3.75A27.47,27.47,0,0,1,8.42,62.12,30.69,30.69,0,0,1,4.67,46.83a30.51,30.51,0,0,1,3.61-15A25.81,25.81,0,0,1,18.5,21.6a31,31,0,0,1,15.36-3.69,42.76,42.76,0,0,1,6.88.56,32.54,32.54,0,0,1,6.88,2,4.5,4.5,0,0,1,2,1.87,5,5,0,0,1,.62,2.3,4.76,4.76,0,0,1-1.18,3.19A3.9,3.9,0,0,1,46,29.17,5.82,5.82,0,0,1,44,28.76a41.08,41.08,0,0,0-5.22-1.53,25.62,25.62,0,0,0-5.9-.7,16.82,16.82,0,0,0-9.73,2.85A19.11,19.11,0,0,0,16.69,37,23.52,23.52,0,0,0,14.4,47.38a21.41,21.41,0,0,0,5.14,14.46,17.1,17.1,0,0,0,13.62,6,23.49,23.49,0,0,0,7.37-1.19A18.16,18.16,0,0,0,46,64.06a5.8,5.8,0,0,1,2.64-.83,3.62,3.62,0,0,1,2.92,1.32,4.51,4.51,0,0,1,1.11,3A5.3,5.3,0,0,1,50.26,71.85Z"/><path class="cls-1" d="M78.9,76.29a20.66,20.66,0,0,1-10.71-2.78,19.34,19.34,0,0,1-7.37-7.71,23,23,0,0,1-2.64-11,21.57,21.57,0,0,1,2.64-10.7,19.3,19.3,0,0,1,7.37-7.44A21.1,21.1,0,0,1,78.9,33.9a17.32,17.32,0,0,1,6.94,1.32,18.3,18.3,0,0,1,5.29,3.41,4.31,4.31,0,0,1,1.66-3,5,5,0,0,1,3.06-1,5,5,0,0,1,3.27,1.19,4.29,4.29,0,0,1,1.46,3.54V72a3.77,3.77,0,0,1-1.46,3.19,5.36,5.36,0,0,1-6.53,0A3.74,3.74,0,0,1,91.13,72v-.56A16.93,16.93,0,0,1,85.84,75,17.32,17.32,0,0,1,78.9,76.29Zm.83-8.61a10.46,10.46,0,0,0,8.34-3.55,13.85,13.85,0,0,0,3.06-9.38,12.66,12.66,0,0,0-3.06-8.9,10.77,10.77,0,0,0-8.34-3.33A11.86,11.86,0,0,0,71,45.85a12,12,0,0,0-3.33,8.9A13.14,13.14,0,0,0,71,64.13,11.49,11.49,0,0,0,79.73,67.68Z"/><path class="cls-1" d="M145.89,76.29a5.3,5.3,0,0,1-3.27-1.11A3.76,3.76,0,0,1,141.17,72V54.47q0-6.12-2.72-9a9.27,9.27,0,0,0-7.15-2.92q-5.7,0-8.27,3.68a13.88,13.88,0,0,0-2.58,8.13V72A3.74,3.74,0,0,1,119,75.18a5.36,5.36,0,0,1-6.53,0A3.77,3.77,0,0,1,111,72V39.32a4.29,4.29,0,0,1,1.46-3.54,5.07,5.07,0,0,1,6.53,0,4.26,4.26,0,0,1,1.46,3.54,18.44,18.44,0,0,1,6.12-3.89,18.82,18.82,0,0,1,7.09-1.53q7.78,0,12.37,5t4.59,14.74V72a3.7,3.7,0,0,1-1.53,3.19A5.38,5.38,0,0,1,145.89,76.29Z"/><path class="cls-1" d="M176.75,76.29a12.34,12.34,0,0,1-8.9-3.33q-3.48-3.34-3.47-10V45.3A1.23,1.23,0,0,0,163,43.91h-2.51a4.3,4.3,0,0,1-3-1.18,3.93,3.93,0,0,1-1.26-3,4.31,4.31,0,0,1,1.26-3.2,4.16,4.16,0,0,1,3-1.25H163a1.23,1.23,0,0,0,1.39-1.39V22.22a3.94,3.94,0,0,1,1.32-3.12A4.69,4.69,0,0,1,169,17.91a4.92,4.92,0,0,1,3.41,1.19,4,4,0,0,1,1.32,3.12V33.9a1.23,1.23,0,0,0,1.39,1.39h7.5a4,4,0,0,1,2.92,1.25,4.3,4.3,0,0,1,1.25,3.2,4.05,4.05,0,0,1-1.18,3,4.24,4.24,0,0,1-3.12,1.18h-7.37a1.23,1.23,0,0,0-1.39,1.39V61.7c0,3.89,1.57,5.84,4.73,5.84a11,11,0,0,0,2.91-.42,9.76,9.76,0,0,1,2.09-.42,3.69,3.69,0,0,1,3,1.25,4.46,4.46,0,0,1,1,2.92,4.7,4.7,0,0,1-.7,2.44A4.07,4.07,0,0,1,184.53,75a20.89,20.89,0,0,1-3.82.91A27.1,27.1,0,0,1,176.75,76.29Z"/><path class="cls-1" d="M309.31,72.93A5,5,0,0,1,306,71.61a4,4,0,0,1-1.53-3.13V23.58a7,7,0,0,1,2.36-5.7,8.15,8.15,0,0,1,5.28-1.94h14.74a20.78,20.78,0,0,1,8.82,1.88,15.91,15.91,0,0,1,6.61,5.49,15.29,15.29,0,0,1,2.5,8.89q0,8.2-5.21,13.07A17.8,17.8,0,0,1,327,50.13h-9.32q-3.47,0-3.47,4.17V68.48a4.09,4.09,0,0,1-1.46,3.13A4.92,4.92,0,0,1,309.31,72.93ZM317,41.79h8.48a12.38,12.38,0,0,0,6.74-2.08q3.27-2.09,3.27-7.23a6.82,6.82,0,0,0-3-6,11.39,11.39,0,0,0-6.47-2h-8.61q-3.48,0-3.48,3.33V38Q313.9,41.79,317,41.79Z"/><path class="cls-1" d="M368.94,72.93a20.74,20.74,0,0,1-10.7-2.78,19.36,19.36,0,0,1-7.37-7.72,23,23,0,0,1-2.64-11,21.57,21.57,0,0,1,2.64-10.7,19.3,19.3,0,0,1,7.37-7.44,21.19,21.19,0,0,1,10.7-2.71,17.37,17.37,0,0,1,6.95,1.32,18.51,18.51,0,0,1,5.29,3.41,4.33,4.33,0,0,1,1.66-3,5.07,5.07,0,0,1,6.33.14A4.31,4.31,0,0,1,390.63,36V68.62a3.79,3.79,0,0,1-1.46,3.2,5.36,5.36,0,0,1-6.53,0,3.76,3.76,0,0,1-1.46-3.2v-.56a16.79,16.79,0,0,1-5.29,3.55A17.37,17.37,0,0,1,368.94,72.93Zm.84-8.62a10.45,10.45,0,0,0,8.34-3.54,13.87,13.87,0,0,0,3.06-9.39,12.64,12.64,0,0,0-3.06-8.89,10.74,10.74,0,0,0-8.34-3.34A11.83,11.83,0,0,0,361,42.49a12,12,0,0,0-3.33,8.89A13.16,13.16,0,0,0,361,60.77,11.48,11.48,0,0,0,369.78,64.31Z"/><path class="cls-1" d="M429.82,35.12a4.46,4.46,0,0,1,1.32-3.27,4.62,4.62,0,0,1,3.41-1.32,4.68,4.68,0,0,1,3.34,1.32,4.37,4.37,0,0,1,1.39,3.27v19.6A17.77,17.77,0,0,1,436.5,65a16.87,16.87,0,0,1-7.23,6,23.9,23.9,0,0,1-18.91,0,16.78,16.78,0,0,1-7.22-6,17.7,17.7,0,0,1-2.78-10.29V35.12a4.42,4.42,0,0,1,1.32-3.27,4.6,4.6,0,0,1,3.4-1.32,4.68,4.68,0,0,1,3.34,1.32,4.37,4.37,0,0,1,1.39,3.27v19.6q0,5.14,3.06,7.37a12.1,12.1,0,0,0,14,0q3-2.22,3-7.37Z"/><path class="cls-1" d="M464.16,72.93a33.89,33.89,0,0,1-8.2-1,22.27,22.27,0,0,1-7.37-3.27,4.5,4.5,0,0,1-1.67-3.34,4.29,4.29,0,0,1,1.46-3.19,4.61,4.61,0,0,1,3.27-1.39,3.9,3.9,0,0,1,1.94.55,22.78,22.78,0,0,0,5.77,2.44,23.33,23.33,0,0,0,6.19.9,10.89,10.89,0,0,0,4.79-1,3.32,3.32,0,0,0,2-3.2,3.62,3.62,0,0,0-1.95-3.34,19,19,0,0,0-6.67-1.66l-4.66-.7a22.85,22.85,0,0,1-5.35-1.53,11.27,11.27,0,0,1-4.45-3.34,9.2,9.2,0,0,1-1.8-6A11.81,11.81,0,0,1,452,34.15q4.51-3.62,12.17-3.62a31.12,31.12,0,0,1,8.41,1.12,15.45,15.45,0,0,1,5.9,2.78A3.67,3.67,0,0,1,480,37.34a4.64,4.64,0,0,1-1.25,3.2,4.06,4.06,0,0,1-4.86,1A18.81,18.81,0,0,0,469,39.64a23,23,0,0,0-5.21-.63,11.94,11.94,0,0,0-4.94.91,3,3,0,0,0-2,2.85A3.16,3.16,0,0,0,458,45.2q1.18,1,6.19,1.74,2.35.27,5.35.83a27.62,27.62,0,0,1,5.77,1.74,10.73,10.73,0,0,1,4.58,3.68A11.39,11.39,0,0,1,481.67,60a10.64,10.64,0,0,1-2.5,7.3,15.09,15.09,0,0,1-6.47,4.24A25.79,25.79,0,0,1,464.16,72.93Z"/><path class="cls-1" d="M509.33,72.93q-10.43,0-16.26-6t-5.84-16.12a19.4,19.4,0,0,1,5.91-14.6q5.89-5.7,15.22-5.7,9,0,14.45,5.22a17.09,17.09,0,0,1,5.42,12.85,6.09,6.09,0,0,1-1.59,4.59,5.71,5.71,0,0,1-4.1,1.53H498.35c-.93,0-1.25.51-1,1.53a10.22,10.22,0,0,0,4.51,6,14.1,14.1,0,0,0,7.72,2.16,23.09,23.09,0,0,0,6.18-.83A15.53,15.53,0,0,0,521,61.11a2.78,2.78,0,0,1,1.8-.55,3.76,3.76,0,0,1,2.78,1.32A4.36,4.36,0,0,1,526.84,65a5.34,5.34,0,0,1-.27,1.66,4,4,0,0,1-1.25,1.67A21.53,21.53,0,0,1,517.6,72,36.15,36.15,0,0,1,509.33,72.93Zm8.06-25.44a.74.74,0,0,0,.84-.83,7,7,0,0,0-2.85-5.56,10.61,10.61,0,0,0-7-2.37,13.2,13.2,0,0,0-6.88,2,7.84,7.84,0,0,0-4,5.14V46a2.26,2.26,0,0,0-.07,1c0,.27.43.41,1.18.41Z"/><rect class="cls-2" x="207.1" y="11.64" width="76.98" height="82.5" rx="12" ry="12"/><rect class="cls-3" x="203.35" y="7.89" width="84.49" height="90" rx="12" ry="12"/><line class="cls-4" x1="232.81" y1="81.39" x2="232.61" y2="24.4"/><line class="cls-4" x1="258.6" y1="81.39" x2="258.36" y2="24.4"/></svg>